<svg width="100" height="119" viewBox="0 0 100 119" fill="none" xmlns="http://www.w3.org/2000/svg">
<path d="M33.5968 3.24902C35.5454 1.5281 38.5381 1.58534 40.4171 3.4209L52.3712 15.0996L60.1046 7.5459L60.2902 7.37402C62.2387 5.65343 65.2306 5.71057 67.1095 7.5459L74.3956 14.6631L78.0587 11.0869L78.2433 10.9141C80.1289 9.2488 82.9924 9.24892 84.8781 10.9141L85.0636 11.0869L85.0656 11.0889L96.2843 22.085H96.2833C98.1856 23.9453 98.2446 26.9423 96.4601 28.873L96.2814 29.0566L86.6642 38.4502L90.4806 42.1514L90.4865 42.1572L90.6652 42.3398C92.3929 44.2089 92.3929 47.0781 90.6652 48.9473L90.4865 49.1309L89.671 49.9268L94.8575 54.9932L95.0382 55.1787C96.7857 57.0709 96.7854 60.0022 95.0382 61.8945L94.8575 62.0801L79.757 76.8311L81.0441 78.0879L81.2365 78.2861C81.3639 78.4253 81.4817 78.5711 81.5909 78.7217L84.6339 81.6943L84.8126 81.8779C86.5406 83.7471 86.5406 86.6162 84.8126 88.4854L84.6339 88.6689L80.9122 92.3037L81.3907 92.7705L81.5695 92.9541C83.2969 94.8231 83.2969 97.6915 81.5695 99.5605L81.3907 99.7441L65.1808 115.579C63.3018 117.414 60.3099 117.472 58.3615 115.751L58.1759 115.579L46.2208 103.899L38.4884 111.454C36.6093 113.29 33.6166 113.347 31.6681 111.626L31.4835 111.454L24.1964 104.335L20.5343 107.913C18.6554 109.749 15.6635 109.806 13.715 108.086L13.5294 107.913L3.71887 98.3291C1.75319 96.4088 1.75316 93.2757 3.71887 91.3555L13.34 81.9551L8.10657 76.8428C6.14102 74.9225 6.14089 71.7894 8.10657 69.8691L8.92102 69.0723L3.73547 64.0068C1.74739 62.0647 1.74748 58.8621 3.73547 56.9199L3.74036 56.915L15.5197 45.4863L10.5978 40.6787C8.6321 38.7584 8.63209 35.6253 10.5978 33.7051L17.7111 26.7266L17.2023 26.2295C15.2365 24.3092 15.2366 21.1761 17.2023 19.2559L33.4122 3.4209L33.5968 3.24902Z" fill="white" stroke="white" stroke-width="4"/>
<path d="M79.9931 98.3136C81.1556 97.178 81.1556 95.3368 79.9931 94.2012L74.4092 88.7465L79.6463 83.6306C80.8088 82.495 80.8088 80.6538 79.6463 79.5182L74.0627 74.0638L86.3437 62.0669C87.5286 60.9094 87.5286 58.9986 86.3437 57.8412L82.5255 54.1113L89.0888 47.6998C90.2513 46.5642 90.2513 44.723 89.0888 43.5874L83.7973 38.4562L94.8838 27.6261C96.0463 26.4904 96.0463 24.6492 94.8838 23.5136L83.6657 12.5171C82.5032 11.3815 80.6184 11.3815 79.4559 12.5171L68.3694 23.3473L62.8428 17.9485C61.6803 16.8129 59.7955 16.8129 58.633 17.9485L51.057 25.3493L38.5939 13.1745C37.4314 12.0388 35.5466 12.0388 34.3841 13.1745L11.9954 35.1358C10.8329 36.2714 10.8329 38.1126 11.9954 39.2482L18.3876 45.4926L5.13294 58.3502C3.94804 59.5077 3.94804 61.4184 5.13293 62.5759L23.1538 80.1799L14.8473 88.2943C13.6848 89.43 13.6848 91.2711 14.8473 92.4068L32.8809 110.023C34.0434 111.159 35.9282 111.159 37.0907 110.023L46.2208 101.104L59.5737 114.148C60.7362 115.284 62.621 115.284 63.7835 114.148L79.9931 98.3136Z" fill="url(#paint0_linear_2445_1811)"/>
<path d="M18.9466 39.4818C17.7841 38.3462 17.7841 36.505 18.9466 35.3694L38.0478 16.7099C39.2103 15.5743 41.0951 15.5743 42.2576 16.7099L60.1134 34.1528C61.2759 35.2884 61.2759 37.1296 60.1134 38.2652L41.0122 56.9247C39.8497 58.0603 37.9649 58.0603 36.8024 56.9247L18.9466 39.4818Z" fill="#FFA600"/>
<path d="M43.765 85.8547C42.6025 86.9903 42.6025 88.8315 43.765 89.9671L59.999 105.826C61.1615 106.961 63.0462 106.961 64.2087 105.826L83.2366 87.2378C84.3991 86.1022 84.3991 84.261 83.2366 83.1254L67.0027 67.267C65.8402 66.1313 63.9554 66.1313 62.7929 67.267L43.765 85.8547Z" fill="#FFA600"/>
<path d="M5.11616 92.7864C3.95366 93.9221 3.95366 95.7632 5.11616 96.8989L14.9271 106.483C16.0896 107.618 17.9744 107.618 19.1369 106.483L55.3655 71.0922C56.528 69.9566 56.528 68.1154 55.3655 66.9797L45.5546 57.3957C44.3921 56.2601 42.5073 56.2601 41.3448 57.3957L5.11616 92.7864Z" fill="#F00090"/>
<path d="M9.50406 71.3002C8.34156 72.4358 8.34156 74.277 9.50407 75.4126L35.7501 101.052C36.9126 102.187 38.7973 102.187 39.9599 101.052L59.9278 81.5454C61.0903 80.4098 61.0903 78.5686 59.9278 77.433L33.6818 51.794C32.5193 50.6584 30.6345 50.6584 29.472 51.794L9.50406 71.3002Z" fill="#007FE0"/>
<path d="M18.5997 24.7988C17.4372 23.6632 17.4372 21.822 18.5997 20.6864L34.8093 4.85171C35.9718 3.7161 37.8566 3.7161 39.0191 4.85171L75.7344 40.7178C76.8969 41.8534 76.8969 43.6946 75.7344 44.8302L59.5248 60.6648C58.3623 61.8005 56.4775 61.8004 55.315 60.6648L18.5997 24.7988Z" fill="#007FE0"/>
<path d="M35.1274 38.854C33.9649 37.7183 33.9649 35.8771 35.1274 34.7415L61.5022 8.97678C62.6647 7.84117 64.5495 7.84117 65.712 8.97678L83.7456 26.5933C84.9081 27.7289 84.9081 29.5701 83.7456 30.7057L57.3708 56.4704C56.2083 57.606 54.3235 57.606 53.161 56.4704L35.1274 38.854Z" fill="#F00090"/>
<path d="M12.2491 61.1588C11.0642 60.0014 11.0642 58.0906 12.2491 56.9331L39.4288 30.3821C40.569 29.2682 42.3855 29.2682 43.5257 30.3821L51.1742 37.8537C52.3144 38.9675 54.1309 38.9675 55.2711 37.8537L62.812 30.4873C63.9522 29.3734 65.7687 29.3734 66.9089 30.4873L93.4599 56.4241C94.6448 57.5816 94.6448 59.4923 93.4599 60.6498L67.3977 86.1092C66.2575 87.2231 64.441 87.2231 63.3008 86.1092L54.9774 77.9784C53.8372 76.8645 52.0207 76.8645 50.8805 77.9784L42.2222 86.4364C41.0819 87.5503 39.2655 87.5503 38.1252 86.4364L12.2491 61.1588Z" fill="#6C2A98"/>
<path d="M26.5201 51.9701H28.0306V53.4863H26.5201V51.9701ZM28.0306 51.9701H29.5412V53.4863H28.0306V51.9701ZM29.5412 51.9701H31.0517V53.4863H29.5412V51.9701ZM31.0517 51.9701H32.5622V53.4863H31.0517V51.9701ZM32.5622 51.9701H34.0728V53.4863H32.5622V51.9701ZM34.0728 51.9701H35.5833V53.4863H34.0728V51.9701ZM34.0728 53.4863H35.5833V55.0026H34.0728V53.4863ZM32.5622 53.4863H34.0728V55.0026H32.5622V53.4863ZM31.0517 53.4863H32.5622V55.0026H31.0517V53.4863ZM29.5412 53.4863H31.0517V55.0026H29.5412V53.4863ZM28.0306 53.4863H29.5412V55.0026H28.0306V53.4863ZM26.5201 53.4863H28.0306V55.0026H26.5201V53.4863ZM35.5833 53.4863H37.0938V55.0026H35.5833V53.4863ZM34.0728 55.0026H35.5833V56.5188H34.0728V55.0026ZM35.5833 55.0026H37.0938V56.5188H35.5833V55.0026ZM35.5833 56.5188H37.0938V58.035H35.5833V56.5188ZM35.5833 58.035H37.0938V59.5513H35.5833V58.035ZM34.0728 58.035H35.5833V59.5513H34.0728V58.035ZM34.0728 56.5188H35.5833V58.035H34.0728V56.5188ZM34.0728 59.5513H35.5833V61.0675H34.0728V59.5513ZM34.0728 61.0675H35.5833V62.5838H34.0728V61.0675ZM32.5622 61.0675H34.0728V62.5838H32.5622V61.0675ZM32.5622 59.5513H34.0728V61.0675H32.5622V59.5513ZM31.0517 59.5513H32.5622V61.0675H31.0517V59.5513ZM31.0517 61.0675H32.5622V62.5838H31.0517V61.0675ZM29.5412 61.0675H31.0517V62.5838H29.5412V61.0675ZM29.5412 59.5513H31.0517V61.0675H29.5412V59.5513ZM28.0306 59.5513H29.5412V61.0675H28.0306V59.5513ZM26.5201 59.5513H28.0306V61.0675H26.5201V59.5513ZM26.5201 61.0675H28.0306V62.5838H26.5201V61.0675ZM28.0306 61.0675H29.5412V62.5838H28.0306V61.0675ZM26.5201 55.0026H28.0306V56.5188H26.5201V55.0026ZM28.0306 55.0026H29.5412V56.5188H28.0306V55.0026ZM28.0306 56.5188H29.5412V58.035H28.0306V56.5188ZM28.0306 58.035H29.5412V59.5513H28.0306V58.035ZM26.5201 56.5188H28.0306V58.035H26.5201V56.5188ZM26.5201 58.035H28.0306V59.5513H26.5201V58.035ZM26.5201 62.5838H28.0306V64.1H26.5201V62.5838ZM28.0306 62.5838H29.5412V64.1H28.0306V62.5838ZM28.0306 64.1H29.5412V65.6162H28.0306V64.1ZM28.0306 65.6162H29.5412V67.1325H28.0306V65.6162ZM26.5201 65.6162H28.0306V67.1325H26.5201V65.6162ZM26.5201 64.1H28.0306V65.6162H26.5201V64.1ZM35.5833 59.5513H37.0938V61.0675H35.5833V59.5513Z" fill="white"/>
<path d="M41.6294 51.9701H43.1399V53.4863H41.6294V51.9701ZM40.1188 51.9701H41.6294V53.4863H40.1188V51.9701ZM40.1188 53.4863H41.6294V55.0026H40.1188V53.4863ZM41.6294 53.4863H43.1399V55.0026H41.6294V53.4863ZM43.1399 53.4863H44.6504V55.0026H43.1399V53.4863ZM43.1399 51.9701H44.6504V53.4863H43.1399V51.9701ZM44.6504 51.9701H46.1609V53.4863H44.6504V51.9701ZM46.1609 51.9701H47.6715V53.4863H46.1609V51.9701ZM46.1609 53.4863H47.6715V55.0026H46.1609V53.4863ZM44.6504 53.4863H46.1609V55.0026H44.6504V53.4863ZM44.6504 55.0026H46.1609V56.5188H44.6504V55.0026ZM46.1609 55.0026H47.6715V56.5188H46.1609V55.0026ZM47.6715 53.4863H49.182V55.0026H47.6715V53.4863ZM47.6715 55.0026H49.182V56.5188H47.6715V55.0026ZM47.6715 56.5188H49.182V58.035H47.6715V56.5188ZM47.6715 58.035H49.182V59.5513H47.6715V58.035ZM47.6715 59.5513H49.182V61.0675H47.6715V59.5513ZM47.6715 61.0675H49.182V62.5838H47.6715V61.0675ZM47.6715 62.5838H49.182V64.1H47.6715V62.5838ZM47.6715 64.1H49.182V65.6162H47.6715V64.1ZM46.1609 64.1H47.6715V65.6162H46.1609V64.1ZM46.1609 62.5838H47.6715V64.1H46.1609V62.5838ZM46.1609 61.0675H47.6715V62.5838H46.1609V61.0675ZM46.1609 59.5513H47.6715V61.0675H46.1609V59.5513ZM46.1609 58.035H47.6715V59.5513H46.1609V58.035ZM46.1609 56.5188H47.6715V58.035H46.1609V56.5188ZM44.6504 62.5838H46.1609V64.1H44.6504V62.5838ZM44.6504 64.1H46.1609V65.6162H44.6504V64.1ZM46.1609 65.6162H47.6715V67.1325H46.1609V65.6162ZM44.6504 65.6162H46.1609V67.1325H44.6504V65.6162ZM43.1399 65.6162H44.6504V67.1325H43.1399V65.6162ZM43.1399 64.1H44.6504V65.6162H43.1399V64.1ZM41.6294 65.6162H43.1399V67.1325H41.6294V65.6162ZM40.1188 65.6162H41.6294V67.1325H40.1188V65.6162ZM40.1188 64.1H41.6294V65.6162H40.1188V64.1ZM41.6294 64.1H43.1399V65.6162H41.6294V64.1ZM41.6294 62.5838H43.1399V64.1H41.6294V62.5838ZM40.1188 62.5838H41.6294V64.1H40.1188V62.5838ZM38.6083 64.1H40.1188V65.6162H38.6083V64.1ZM38.6083 62.5838H40.1188V64.1H38.6083V62.5838ZM38.6083 61.0675H40.1188V62.5838H38.6083V61.0675ZM38.6083 59.5513H40.1188V61.0675H38.6083V59.5513ZM38.6083 58.035H40.1188V59.5513H38.6083V58.035ZM38.6083 56.5188H40.1188V58.035H38.6083V56.5188ZM38.6083 55.0026H40.1188V56.5188H38.6083V55.0026ZM40.1188 55.0026H41.6294V56.5188H40.1188V55.0026ZM38.6083 53.4863H40.1188V55.0026H38.6083V53.4863ZM41.6294 55.0026H43.1399V56.5188H41.6294V55.0026ZM40.1188 56.5188H41.6294V58.035H40.1188V56.5188ZM40.1188 58.035H41.6294V59.5513H40.1188V58.035ZM40.1188 59.5513H41.6294V61.0675H40.1188V59.5513ZM40.1188 61.0675H41.6294V62.5838H40.1188V61.0675Z" fill="white"/>
<path d="M50.6965 65.6162H52.207V67.1325H50.6965V65.6162ZM52.207 65.6162H53.7175V67.1325H52.207V65.6162ZM52.207 64.1H53.7175V65.6162H52.207V64.1ZM52.207 62.5838H53.7175V64.1H52.207V62.5838ZM52.207 61.0675H53.7175V62.5838H52.207V61.0675ZM52.207 59.5513H53.7175V61.0675H52.207V59.5513ZM52.207 58.035H53.7175V59.5513H52.207V58.035ZM50.6965 58.035H52.207V59.5513H50.6965V58.035ZM50.6965 59.5513H52.207V61.0675H50.6965V59.5513ZM50.6965 61.0675H52.207V62.5838H50.6965V61.0675ZM50.6965 62.5838H52.207V64.1H50.6965V62.5838ZM50.6965 64.1H52.207V65.6162H50.6965V64.1ZM50.6965 56.5188H52.207V58.035H50.6965V56.5188ZM52.207 56.5188H53.7175V58.035H52.207V56.5188ZM52.207 55.0026H53.7175V56.5188H52.207V55.0026ZM52.207 53.4863H53.7175V55.0026H52.207V53.4863ZM52.207 51.9701H53.7175V53.4863H52.207V51.9701ZM50.6965 51.9701H52.207V53.4863H50.6965V51.9701ZM50.6965 53.4863H52.207V55.0026H50.6965V53.4863ZM50.6965 55.0026H52.207V56.5188H50.6965V55.0026Z" fill="white"/>
<path d="M59.7715 59.5513H61.282V61.0675H59.7715V59.5513ZM59.7715 58.035H61.282V59.5513H59.7715V58.035ZM61.282 58.035H62.7925V59.5513H61.282V58.035ZM61.282 59.5513H62.7925V61.0675H61.282V59.5513ZM61.282 61.0675H62.7925V62.5838H61.282V61.0675ZM59.7715 61.0675H61.282V62.5838H59.7715V61.0675ZM59.7715 55.0026H61.282V56.5188H59.7715V55.0026ZM59.7715 56.5188H61.282V58.035H59.7715V56.5188ZM58.2609 58.035H59.7715V59.5513H58.2609V58.035ZM58.2609 56.5188H59.7715V58.035H58.2609V56.5188ZM58.2609 55.0026H59.7715V56.5188H58.2609V55.0026ZM55.2399 51.9701H56.7504V53.4863H55.2399V51.9701ZM56.7504 51.9701H58.2609V53.4863H56.7504V51.9701ZM58.2609 51.9701H59.7715V53.4863H58.2609V51.9701ZM58.2609 53.4863H59.7715V55.0026H58.2609V53.4863ZM56.7504 53.4863H58.2609V55.0026H56.7504V53.4863ZM55.2399 53.4863H56.7504V55.0026H55.2399V53.4863ZM55.2399 55.0026H56.7504V56.5188H55.2399V55.0026ZM56.7504 55.0026H58.2609V56.5188H56.7504V55.0026ZM56.7504 56.5188H58.2609V58.035H56.7504V56.5188ZM56.7504 58.035H58.2609V59.5513H56.7504V58.035ZM55.2399 58.035H56.7504V59.5513H55.2399V58.035ZM55.2399 56.5188H56.7504V58.035H55.2399V56.5188ZM55.2399 59.5513H56.7504V61.0675H55.2399V59.5513ZM56.7504 59.5513H58.2609V61.0675H56.7504V59.5513ZM56.7504 61.0675H58.2609V62.5838H56.7504V61.0675ZM56.7504 62.5838H58.2609V64.1H56.7504V62.5838ZM56.7504 64.1H58.2609V65.6162H56.7504V64.1ZM56.7504 65.6162H58.2609V67.1325H56.7504V65.6162ZM55.2399 65.6162H56.7504V67.1325H55.2399V65.6162ZM55.2399 64.1H56.7504V65.6162H55.2399V64.1ZM55.2399 62.5838H56.7504V64.1H55.2399V62.5838ZM55.2399 61.0675H56.7504V62.5838H55.2399V61.0675ZM61.282 62.5838H62.7925V64.1H61.282V62.5838ZM61.282 64.1H62.7925V65.6162H61.282V64.1ZM62.7925 62.5838H64.303V64.1H62.7925V62.5838ZM62.7925 61.0675H64.303V62.5838H62.7925V61.0675ZM62.7925 64.1H64.303V65.6162H62.7925V64.1ZM62.7925 65.6162H64.303V67.1325H62.7925V65.6162ZM64.303 65.6162H65.8136V67.1325H64.303V65.6162ZM65.8136 65.6162H67.3241V67.1325H65.8136V65.6162ZM65.8136 64.1H67.3241V65.6162H65.8136V64.1ZM65.8136 62.5838H67.3241V64.1H65.8136V62.5838ZM64.303 62.5838H65.8136V64.1H64.303V62.5838ZM64.303 64.1H65.8136V65.6162H64.303V64.1ZM64.303 61.0675H65.8136V62.5838H64.303V61.0675ZM65.8136 59.5513H67.3241V61.0675H65.8136V59.5513ZM65.8136 58.035H67.3241V59.5513H65.8136V58.035ZM65.8136 61.0675H67.3241V62.5838H65.8136V61.0675ZM64.303 59.5513H65.8136V61.0675H64.303V59.5513ZM64.303 58.035H65.8136V59.5513H64.303V58.035ZM64.303 56.5188H65.8136V58.035H64.303V56.5188ZM65.8136 56.5188H67.3241V58.035H65.8136V56.5188ZM65.8136 55.0026H67.3241V56.5188H65.8136V55.0026ZM64.303 51.9701H65.8136V53.4863H64.303V51.9701ZM65.8136 51.9701H67.3241V53.4863H65.8136V51.9701ZM65.8136 53.4863H67.3241V55.0026H65.8136V53.4863ZM64.303 53.4863H65.8136V55.0026H64.303V53.4863ZM64.303 55.0026H65.8136V56.5188H64.303V55.0026Z" fill="white"/>
<path d="M68.8425 51.9701H70.353V53.4863H68.8425V51.9701ZM70.353 51.9701H71.8636V53.4863H70.353V51.9701ZM71.8636 51.9701H73.3741V53.4863H71.8636V51.9701ZM73.3741 51.9701H74.8846V53.4863H73.3741V51.9701ZM74.8846 51.9701H76.3952V53.4863H74.8846V51.9701ZM76.3952 51.9701H77.9057V53.4863H76.3952V51.9701ZM76.3952 53.4863H77.9057V55.0026H76.3952V53.4863ZM74.8846 53.4863H76.3952V55.0026H74.8846V53.4863ZM73.3741 53.4863H74.8846V55.0026H73.3741V53.4863ZM71.8636 53.4863H73.3741V55.0026H71.8636V53.4863ZM70.353 53.4863H71.8636V55.0026H70.353V53.4863ZM68.8425 53.4863H70.353V55.0026H68.8425V53.4863ZM71.8636 55.0026H73.3741V56.5188H71.8636V55.0026ZM71.8636 56.5188H73.3741V58.035H71.8636V56.5188ZM71.8636 58.035H73.3741V59.5513H71.8636V58.035ZM71.8636 59.5513H73.3741V61.0675H71.8636V59.5513ZM71.8636 61.0675H73.3741V62.5838H71.8636V61.0675ZM71.8636 62.5838H73.3741V64.1H71.8636V62.5838ZM73.3741 61.0675H74.8846V62.5838H73.3741V61.0675ZM73.3741 59.5513H74.8846V61.0675H73.3741V59.5513ZM73.3741 58.035H74.8846V59.5513H73.3741V58.035ZM73.3741 56.5188H74.8846V58.035H73.3741V56.5188ZM73.3741 55.0026H74.8846V56.5188H73.3741V55.0026ZM73.3741 62.5838H74.8846V64.1H73.3741V62.5838ZM73.3741 64.1H74.8846V65.6162H73.3741V64.1ZM73.3741 65.6162H74.8846V67.1325H73.3741V65.6162ZM71.8636 65.6162H73.3741V67.1325H71.8636V65.6162ZM71.8636 64.1H73.3741V65.6162H71.8636V64.1Z" fill="white"/>
<defs>
<linearGradient id="paint0_linear_2445_1811" x1="50" y1="115" x2="50" y2="4" gradientUnits="userSpaceOnUse">
<stop stop-color="#4E3504"/>
<stop offset="0.3" stop-color="#0A2B5B"/>
<stop offset="0.7" stop-color="#2E0B60"/>
<stop offset="1" stop-color="#690141"/>
</linearGradient>
</defs>
</svg>
